PathFileType	4	(X/Y/Z)	RBDS010\RBDS010runT25.trc
DataRate	CameraRate	NumFrames	NumMarkers	Units	OrigDataRate	OrigDataStartFrame	OrigNumFrames
150.000000	150.000000	4	32	mm	150.000000	2250	4500
Frame#	Time	L.ASIS			L.Heel.Bottom			L.Heel.Lateral			L.Heel.Top			L.Iliac.Crest			L.MT5			L.PSIS			L.Shank.Bottom.Lateral			L.Shank.Bottom.Medial			L.Shank.Top.Lateral			L.Shank.Top.Medial			L.Thigh.Bottom.Lateral			L.Thigh.Bottom.Medial			L.Thigh.Top.Lateral			L.Thigh.Top.Medial			R.ASIS			R.ASY			R.Heel.Bottom			R.Heel.Lateral			R.Heel.Top			R.Iliac.Crest			R.MT1			R.MT5			R.PSIS			R.Shank.Bottom.Lateral			R.Shank.Bottom.Medial			R.Shank.Top.Lateral			R.Shank.Top.Medial			R.Thigh.Bottom.Lateral			R.Thigh.Bottom.Medial			R.Thigh.Top.Lateral			R.Thigh.Top.Medial			
		X1	Y1	Z1	X2	Y2	Z2	X3	Y3	Z3	X4	Y4	Z4	X5	Y5	Z5	X6	Y6	Z6	X7	Y7	Z7	X8	Y8	Z8	X9	Y9	Z9	X10	Y10	Z10	X11	Y11	Z11	X12	Y12	Z12	X13	Y13	Z13	X14	Y14	Z14	X15	Y15	Z15	X16	Y16	Z16	X17	Y17	Z17	X18	Y18	Z18	X19	Y19	Z19	X20	Y20	Z20	X21	Y21	Z21	X22	Y22	Z22	X23	Y23	Z23	X24	Y24	Z24	X25	Y25	Z25	X26	Y26	Z26	X27	Y27	Z27	X28	Y28	Z28	X29	Y29	Z29	X30	Y30	Z30	X31	Y31	Z31	X32	Y32	Z32	

2251	15	2303.408575829557	1001.83878314418	866.5239570903037	2284.978172278232	63.90439155469208	935.9057794158334	2312.800168376448	74.76767414260429	888.5428041128604	2293.260727977214	114.1780041283256	929.5784003403799	2255.028573960409	1096.984893787943	835.8279559408678	2472.704011289741	67.2011198165535	864.0991435416125	2144.151665537748	1059.231016401468	938.2830368891857	2333.873220770317	200.7312055044349	868.3660570162438	2302.716959303932	203.3476398072269	912.181419361344	2318.370628441184	277.4896329540334	850.9914169818709	2287.172798237716	280.9151547091586	895.0867643658343	2306.30486040126	611.7098283168201	826.7414739306117	2253.920177993393	589.0431094164188	870.7724510761552	2252.265831411616	707.3682390808879	814.8006988500355	2203.496546393097	686.916391069376	857.1979201300671	2307.348154627996	986.6370610031374	1092.045520000425	1899.41546466159	129.6659467215916	1027.958157848557	1745.321920290254	236.2576322331924	1000.886720974301	1770.37184020769	222.9643469943427	1048.359135350089	1788.43102174826	258.2977139801318	1010.101163884041	2262.747347673748	1078.366631302834	1128.766001099538	1888.230730509001	81.58664032191794	965.9849765222731	1854.038445652455	84.37061747298287	1074.799056002036	2148.239192213681	1060.211539968134	1037.294704783452	1882.091882597254	284.902650492257	1071.824060435128	1850.567475866628	311.1421957050918	1040.539810865222	1924.544318433368	356.7257208220672	1087.574672097241	1889.387238241427	380.5720261283489	1054.370885655247	2110.253975479889	637.9157290225467	1122.09282503528	2053.395468386079	656.6157924140153	1078.991369356701	2129.454593918591	744.9930408889095	1137.740777342076	2075.741560224871	763.5531047595189	1098.334990427496	
2252	15.00666666666667	2304.110488791066	1001.274430270983	866.7773533761289	2296.961596267418	61.47064355508397	940.1070057285252	2324.336910029127	71.36298877933719	892.2924602203249	2304.238350408905	111.6655018990331	932.2183607290482	2255.802306389366	1096.178809704889	835.78616998429	2484.002490321762	65.83323740115208	866.9180966259465	2144.724060559296	1058.500593906841	938.1211681202128	2341.278805023795	198.3781392029829	870.1364317757616	2310.513336345229	200.3082214079555	914.3166740303271	2322.918927834362	274.5198291952547	852.458633928463	2292.140521860186	277.256661205418	896.9858140256822	2301.843549566699	609.3783882867482	826.0612284574815	2250.364108622616	587.7759006684862	871.6680343681172	2248.917075011877	705.6071309060225	814.6578455421422	2200.723303970062	686.0651327290808	858.2390544825487	2308.12206024883	987.1280203693032	1092.221617456897	1890.553452179762	134.7386328967441	1028.720750743169	1739.791317412679	246.3835438036435	1002.320703015497	1764.348110738886	231.8981614212204	1049.706631131681	1783.645567157858	266.9526466477208	1011.747962519874	2262.443186029803	1079.086991464096	1128.557273832777	1877.831377004072	87.41840681853095	966.1869953735705	1843.56244617177	90.15742406011239	1074.871821523363	2148.769210883948	1059.960788187026	1037.112320399495	1878.201679744702	289.7675351484039	1072.913450049396	1847.333459539716	316.9807098808105	1041.734708509537	1922.909343681795	360.2736022962151	1088.293078813415	1888.291125769197	385.1475655307352	1055.319503555075	2113.929070170235	636.7411220914396	1122.090936213533	2056.823564272817	655.1475024862491	1079.259963181722	2132.52686361827	743.8648033252948	1137.947992180094	2078.510965338191	762.1814119130527	1098.836717568439	
2253	15.01333333333333	2304.710470273579	1000.308746591313	867.0035679333927	2306.373405410424	59.4808706896737	944.159193792815	2333.353694699895	68.36344136957726	895.9393804761027	2312.925384124695	109.5317359760721	934.8595011038356	2256.436428709108	1094.855205432036	835.7601593753303	2492.737186098959	64.09216763006485	869.539225190729	2145.143601029283	1057.192868915061	938.0570326087905	2346.983219212747	196.0734307552033	871.9370584275354	2316.633162202219	197.4788385961367	916.4894459021912	2326.286135540942	271.6579981308571	854.065313637342	2295.946686061496	273.8685822146612	899.0195103581276	2297.80550043755	606.8572621793553	825.5170751246393	2247.261227238373	586.2450313379055	872.6659001151312	2245.858481297269	703.5828943912607	814.6228862411112	2198.285023511994	684.8821042662786	859.3739044795216	2308.893920394715	987.0991177021343	1092.413232899126	1882.217666278361	140.0459124129057	1029.247400071337	1734.669628759943	256.3118918980875	1004.04445422673	1758.863565360987	240.6796008244706	1051.252713568748	1779.190367034668	275.4826921579244	1013.552720557278	2261.903680073638	1079.215891370857	1128.476763805119	1867.912689347594	93.57401163925984	966.2003119656598	1833.902103153978	96.18367955121208	1074.884469166393	2149.213130044206	1059.026175293996	1037.035216021124	1874.84113581542	294.5350294516996	1073.982445410009	1844.703691763008	322.8301792253418	1042.972425214744	1921.948510155222	363.5261215428114	1089.01801923393	1887.966131133213	389.5450671011872	1056.31793083863	2118.492795738439	634.6037214977082	1122.033379481531	2061.028480782585	652.5576590734131	1079.55898308277	2136.195022882977	741.784760217021	1138.157204230116	2081.775808455928	759.7272287318197	1099.431616913615	
2254	15.02	2305.16768894636	998.9676783411142	867.1534231926657	2312.992569885193	57.74503678548869	947.9862834770611	2339.633242171034	65.65044698251742	899.4204216491374	2319.116435469894	107.6159605507885	937.4975035262026	2256.894569208624	1093.072688099762	835.7508995220908	2498.739726274636	61.90924195950885	871.9445154323985	2145.413212188032	1055.31891028798	938.1268594848685	2350.877750456443	193.6903134978052	873.7678712215242	2320.933852324022	194.7435220366599	918.6750881846261	2328.425961015504	268.8237408421921	855.7824725230688	2298.506723157064	270.6810377123025	901.1311390141784	2294.327848472253	604.1863791778584	825.1599120081244	2244.691123862663	584.447851247725	873.7324767046623	2243.19839641035	701.3253784464144	814.7261140626384	2196.248112676398	683.3599538302816	860.5645949019334	2309.689105574245	986.5155166784059	1092.571665154133	1874.519693009038	145.5385027431315	1029.548602448274	1730.068958252027	266.0512247097388	1006.075944045453	1754.039786195638	249.3081283227203	1053.008665394158	1775.189844854625	283.8885879557484	1015.521546396989	2261.235393947761	1078.698281546838	1128.525979965497	1858.57736790137	100.0047323924328	966.0518983586664	1825.15608663696	102.4088297477224	1074.865480104942	2149.597998876931	1057.390127549143	1037.102051195283	1872.100708729688	299.2074792940513	1075.041814434011	1842.767604117081	328.6642550356862	1044.259583328874	1921.707630735279	366.4929047459543	1089.754595268655	1888.457566725848	393.7493925009621	1057.366055193719	2123.860734842209	631.5246157620066	1121.918853746681	2065.946403584069	648.8734936069015	1079.858969565754	2140.393375228735	738.7725487845104	1138.351858044679	2085.485952544715	756.2092610090081	1100.081622068152	
